<svg xmlns="http://www.w3.org/2000/svg" width="24" height="24" viewBox="0 0 24 24"><defs><style>.a{fill:#fff;}</style></defs><path class="a" d="M20.768,0H3.236A3.234,3.234,0,0,0,0,3.234V20.766A3.234,3.234,0,0,0,3.236,24h8.647l.015-8.576H9.669a.526.526,0,0,1-.526-.524l-.011-2.765a.526.526,0,0,1,.526-.528h2.224V8.937c0-3.1,1.893-4.788,4.659-4.788H18.81a.526.526,0,0,1,.526.526V7.006a.526.526,0,0,1-.525.526H17.418c-1.5,0-1.8.715-1.8,1.763v2.313h3.3a.526.526,0,0,1,.522.588l-.328,2.765a.526.526,0,0,1-.522.464H15.638L15.623,24h5.145A3.234,3.234,0,0,0,24,20.766V3.234A3.234,3.234,0,0,0,20.768,0Z" transform="translate(-0.002 0)"/></svg>